<?xml version="1.0" encoding="UTF-8"?><svg id="a" xmlns="http://www.w3.org/2000/svg" viewBox="0 0 144 144"><defs><style>.b{fill:#cba075;}</style></defs><path class="b" d="M73.8,116.36c1.18-3.42,2.45-7.32,3.88-11.16,.42-1.13,1.7-1.05,2.71-1.03,4.76,.09,8.49-1.84,11.31-5.62,.82-1.1,1.9-1.71,3.21-2.09,1.23-.36,2-.06,2.41,1.14,3.5,10.26,8.7,19.82,12.23,30.06,.33,.96,.95,2.01-.09,2.83-1.01,.79-1.96,0-2.84-.46-4.23-2.18-8.48-4.33-12.65-6.61-1.85-1.01-2.98-.58-3.74,1.26-1.47,3.53-2.89,7.08-4.39,10.6-.4,.94-.93,1.84-1.52,2.66-.83,1.13-1.85,1.08-2.37-.19-2.72-6.75-5.34-13.53-7.99-20.31-.07-.17-.06-.37-.15-1.08Z"/><path class="b" d="M47.14,95.91c2.67,.37,4.22,1.29,5.44,2.83,4.79,6.02,9.45,7.09,16.48,3.78,1.31-.62,2.7-1.24,3.94-.19,1.22,1.04,.13,2.3-.21,3.35-2.44,7.65-4.97,15.26-7.48,22.89-.31,.95-.38,2.17-1.69,2.29-1.32,.12-1.68-1.07-2.08-1.96-1.57-3.59-3-7.24-4.59-10.83-1.55-3.49-1.83-3.58-5.15-1.88-3.99,2.04-7.94,4.16-11.92,6.23-.83,.43-1.78,.97-2.62,.31-.88-.68-.51-1.7-.23-2.6,2.43-7.76,5.8-15.16,8.69-22.75,.37-.98,1.01-1.57,1.43-1.47Z"/><path class="b" d="M117.74,49.27c-2.86-3.43-3.8-7.13-2.65-11.47,.91-3.42-.29-6.25-3.49-7.72-4.25-1.95-6.76-5-7.73-9.59-.76-3.58-3.23-5.34-6.92-5.27-3.97,.07-7.33-1.13-9.79-4.43-2.7-3.6-6.08-4.37-10.11-2.31-3.3,1.69-6.55,1.52-9.99,.1-5.27-2.18-6.58-1.88-10.26,2.38-2.45,2.85-5.36,4.13-9.04,4.26-5.11,.18-6.47,1.06-7.78,5.97-1.05,3.92-3.14,6.54-6.7,8.43-4.51,2.4-5.09,3.84-4.19,8.89,.64,3.59,.19,6.75-2.09,9.77-3.36,4.45-3.36,6.26,.02,10.79,2.2,2.94,2.78,6.02,2.11,9.49-.16,.82-.3,1.65-.44,2.48-.2,2.91,1.18,4.99,3.65,6.13,4.33,1.99,6.94,5.16,7.91,9.81,.71,3.41,3.06,5.09,6.45,5.09,4.5,0,8.13,1.46,10.89,5.18,2.08,2.81,5.07,3.59,8.24,2,4.18-2.09,8.16-2.06,12.34,0,3.27,1.61,6.24,.8,8.45-2.14,2.62-3.49,6.04-5.08,10.39-5,3.65,.07,6.16-1.75,6.89-5.33,.91-4.51,3.38-7.51,7.53-9.42,3.21-1.48,4.56-4.19,3.67-7.63-1.15-4.45-.2-8.23,2.69-11.75,2.33-2.83,2.27-5.94-.05-8.73Zm-45.98,41.54c-20.66-.17-36.99-16.99-36.87-37.97,.12-19.83,17.2-36.43,37.39-36.35,20.35,.08,36.93,16.94,36.81,37.44-.12,20.46-16.91,37.04-37.34,36.87Z"/><path class="b" d="M71.8,20.23c-18.35,.06-33.22,15.12-33.19,33.6,.03,18.39,15.05,33.31,33.5,33.26,18.48-.05,33.31-14.93,33.31-33.43,0-18.58-15.01-33.5-33.62-33.44Zm14.63,42.48c-.54,6.16-4.8,11.03-10.99,12.48-5.5,1.28-10.7,.21-15.61-2.35-2.27-1.18-2.89-3.47-1.78-5.68,1.14-2.27,3.12-3,5.59-1.92,2.3,1,4.59,2.07,7.15,2.1,2.72,.03,5.23-.61,6.52-3.34,1.26-2.66,.04-5.56-2.73-6.6-2.19-.82-4.49-1.1-6.83-1.09-1.94,0-3.44-.74-4.21-2.59-.73-1.76-.09-3.22,1.07-4.59,2.37-2.78,4.7-5.59,7.48-8.91-3.48,0-6.22,.04-8.97-.01-2.92-.06-4.45-1.52-4.48-4.16-.03-2.64,1.51-4.22,4.38-4.25,5.84-.06,11.69,.01,17.53-.03,1.86-.01,3.27,.66,4.07,2.33,.87,1.82,.78,3.58-.59,5.19-2.22,2.62-4.41,5.26-6.63,7.88-.71,.84-1.44,1.35,.35,2.04,5.69,2.2,9.15,7.79,8.65,13.51Z"/></svg>